<svg
  version="1.0"
  xmlns="http://www.w3.org/2000/svg"
  width="300.000000pt"
  height="194.000000pt"
  viewBox="0 0 300.000000 194.000000"
>

  <g
    transform="translate(0.000000,194.000000) scale(0.100000,-0.100000)"
    fill="#000000"
    stroke="none"
  >

    <path d="M842 1655 c-12 -14 -27 -25 -33 -25 -5 0 -31 -16 -56 -35 -25 -19 -52 -35 -59 -35 -7 0 -21 -11 -31 -23 -10 -13 -36 -30 -58 -37 -41 -14 -111 -78 -132 -120 -6 -14 -41 -59 -78 -100 -94 -107 -105 -120 -105 -132 0 -6 -16 -28 -35 -49 -19 -22 -35 -44 -35 -50 0 -6 -16 -30 -35 -53 -19 -24 -35 -52 -35 -63 0 -10 -7 -28 -15 -39 -21 -28 -18 -65 11 -120 38 -72 79 -111 125 -118 21 -3 54 -15 71 -26 29 -17 51 -20 177 -20 l144 0 138 136 138 137 48 -43 c26 -23 58 -46 71 -51 21 -8 22 -14 24 -131 5 -232 2 -242 -53 -214 -18 9 -42 16 -54 16 -25 0 -55 -29 -55 -52 0 -55 177 -93 231 -49 24 19 24 20 22 218 -1 109 1 192 4 186 2 -7 12 -13 21 -13 25 -1 112 -85 112 -108 0 -11 7 -22 15 -26 12 -4 15 -29 15 -136 0 -71 -4 -130 -8 -130 -4 0 -14 -15 -20 -34 -14 -39 -68 -76 -111 -76 -33 0 -51 -16 -51 -46 0 -36 24 -47 90 -42 57 4 64 8 110 53 74 73 80 91 80 252 l0 138 138 2 c140 1 304 24 329 45 16 13 31 -3 60 -61 12 -25 14 -36 5 -39 -7 -2 -12 -14 -12 -26 0 -25 -48 -76 -71 -76 -36 0 -53 -56 -24 -80 9 -8 32 -11 59 -8 34 4 52 14 86 48 23 23 46 56 51 73 11 40 11 110 0 159 -9 37 -8 38 27 47 43 12 69 -5 113 -74 26 -41 29 -54 29 -130 l0 -83 -75 -80 c-78 -83 -99 -128 -75 -157 7 -8 21 -15 32 -15 25 0 68 29 68 46 0 7 14 23 30 36 17 12 30 26 30 31 0 5 18 29 40 53 l40 44 0 126 c0 140 -5 156 -71 224 l-36 37 49 48 c26 26 48 52 48 57 0 14 158 4 173 -11 13 -13 157 -15 157 -2 0 5 11 11 23 15 37 9 77 45 77 69 0 12 -13 36 -28 52 -131 139 -186 188 -234 210 -84 38 -138 98 -138 152 0 44 -124 157 -194 177 -30 9 -59 22 -65 30 -7 8 -35 17 -64 21 -29 4 -70 16 -92 26 -71 33 -126 39 -364 39 -229 0 -234 0 -283 -25 -27 -14 -57 -25 -66 -25 -9 0 -32 -9 -50 -20 -18 -11 -34 -20 -36 -20 -2 0 -6 19 -10 43 -5 27 -18 53 -38 75 -31 31 -34 32 -118 32 -80 0 -88 -2 -108 -25z m162 -107 c8 -18 17 -59 19 -91 10 -103 43 -112 131 -38 41 35 80 56 134 75 73 25 88 26 272 26 166 0 207 -3 275 -21 44 -12 92 -24 108 -26 15 -3 30 -9 33 -14 3 -5 16 -9 29 -9 13 0 27 -5 30 -10 3 -6 27 -15 51 -21 30 -8 62 -27 95 -58 49 -45 61 -70 76 -156 2 -16 11 -44 19 -62 23 -50 17 -89 -27 -179 -57 -119 -85 -148 -168 -173 -38 -12 -76 -21 -85 -21 -9 0 -24 -4 -34 -9 -16 -9 -111 -30 -207 -46 -22 -4 -44 -10 -50 -15 -5 -4 -56 -11 -112 -15 -80 -5 -103 -4 -110 7 -4 7 -30 25 -58 38 -27 14 -51 28 -53 33 -2 4 -11 7 -19 7 -9 0 -35 17 -58 39 -34 31 -56 42 -121 57 -84 19 -144 55 -144 85 0 25 -30 39 -81 39 -41 0 -46 -4 -181 -141 l-139 -140 -112 4 c-127 4 -232 31 -250 63 -5 10 -17 23 -24 27 -23 14 -7 102 24 133 13 13 30 39 38 58 8 18 35 57 60 87 25 29 45 58 45 65 0 7 14 22 30 34 17 12 30 27 30 34 0 6 20 32 45 56 25 24 45 50 45 57 0 21 68 79 111 93 22 8 49 24 59 37 10 13 21 23 25 23 5 0 24 12 44 28 58 44 113 70 153 71 33 1 39 -3 52 -31z m1434 -474 c7 -8 20 -14 27 -14 17 0 105 -90 105 -107 0 -7 8 -17 18 -23 17 -11 -14 -10 -171 7 -54 5 -58 8 -52 27 4 12 9 47 12 79 5 53 7 57 26 51 12 -4 27 -13 35 -20z"/>
    <path d="M818 1239 c-27 -15 -23 -57 7 -71 36 -16 75 3 75 36 0 38 -45 57 -82 35z"/>

  </g>
</svg>